<mxfile host="app.diagrams.net" modified="2023-11-06T15:00:14.050Z" agent="Mozilla/5.0 (Windows NT 10.0; Win64; x64) AppleWebKit/537.36 (KHTML, like Gecko) Chrome/118.0.0.0 Safari/537.36" etag="r83PwaK0mZAxGZinlu8x" version="22.0.8" type="device" pages="5">
  <diagram id="To3fO16rr2EnkqvzP1uV" name="Trang-2">
    <mxGraphModel dx="880" dy="446" grid="1" gridSize="10" guides="1" tooltips="1" connect="1" arrows="1" fold="1" page="1" pageScale="1" pageWidth="827" pageHeight="1169" math="0" shadow="0">
      <root>
        <mxCell id="0" />
        <mxCell id="1" parent="0" />
        <mxCell id="bYh_4wJyu4nNFeAtEAbs-3" value="" style="edgeStyle=orthogonalEdgeStyle;rounded=0;orthogonalLoop=1;jettySize=auto;html=1;" edge="1" parent="1" source="bYh_4wJyu4nNFeAtEAbs-1" target="bYh_4wJyu4nNFeAtEAbs-2">
          <mxGeometry relative="1" as="geometry" />
        </mxCell>
        <mxCell id="bYh_4wJyu4nNFeAtEAbs-1" value="start" style="ellipse;whiteSpace=wrap;html=1;" vertex="1" parent="1">
          <mxGeometry x="360" y="40" width="120" height="80" as="geometry" />
        </mxCell>
        <mxCell id="bYh_4wJyu4nNFeAtEAbs-5" value="" style="edgeStyle=orthogonalEdgeStyle;rounded=0;orthogonalLoop=1;jettySize=auto;html=1;" edge="1" parent="1" source="bYh_4wJyu4nNFeAtEAbs-2" target="bYh_4wJyu4nNFeAtEAbs-4">
          <mxGeometry relative="1" as="geometry" />
        </mxCell>
        <mxCell id="bYh_4wJyu4nNFeAtEAbs-2" value="a,b,c" style="shape=parallelogram;perimeter=parallelogramPerimeter;whiteSpace=wrap;html=1;fixedSize=1;" vertex="1" parent="1">
          <mxGeometry x="360" y="160" width="120" height="60" as="geometry" />
        </mxCell>
        <mxCell id="bYh_4wJyu4nNFeAtEAbs-8" value="" style="edgeStyle=orthogonalEdgeStyle;rounded=0;orthogonalLoop=1;jettySize=auto;html=1;" edge="1" parent="1" source="bYh_4wJyu4nNFeAtEAbs-4" target="bYh_4wJyu4nNFeAtEAbs-6">
          <mxGeometry relative="1" as="geometry" />
        </mxCell>
        <mxCell id="bYh_4wJyu4nNFeAtEAbs-4" value="min=a" style="whiteSpace=wrap;html=1;" vertex="1" parent="1">
          <mxGeometry x="360" y="300" width="120" height="60" as="geometry" />
        </mxCell>
        <mxCell id="bYh_4wJyu4nNFeAtEAbs-10" value="true" style="edgeStyle=orthogonalEdgeStyle;rounded=0;orthogonalLoop=1;jettySize=auto;html=1;" edge="1" parent="1" source="bYh_4wJyu4nNFeAtEAbs-6" target="bYh_4wJyu4nNFeAtEAbs-9">
          <mxGeometry relative="1" as="geometry" />
        </mxCell>
        <mxCell id="bYh_4wJyu4nNFeAtEAbs-6" value="a&amp;lt;b" style="rhombus;whiteSpace=wrap;html=1;" vertex="1" parent="1">
          <mxGeometry x="380" y="430" width="80" height="80" as="geometry" />
        </mxCell>
        <mxCell id="bYh_4wJyu4nNFeAtEAbs-12" value="true" style="edgeStyle=orthogonalEdgeStyle;rounded=0;orthogonalLoop=1;jettySize=auto;html=1;" edge="1" parent="1" source="bYh_4wJyu4nNFeAtEAbs-9" target="bYh_4wJyu4nNFeAtEAbs-11">
          <mxGeometry relative="1" as="geometry" />
        </mxCell>
        <mxCell id="bYh_4wJyu4nNFeAtEAbs-9" value="a&amp;gt;c" style="rhombus;whiteSpace=wrap;html=1;" vertex="1" parent="1">
          <mxGeometry x="380" y="590" width="80" height="80" as="geometry" />
        </mxCell>
        <mxCell id="bYh_4wJyu4nNFeAtEAbs-14" value="" style="edgeStyle=orthogonalEdgeStyle;rounded=0;orthogonalLoop=1;jettySize=auto;html=1;" edge="1" parent="1" source="bYh_4wJyu4nNFeAtEAbs-11" target="bYh_4wJyu4nNFeAtEAbs-13">
          <mxGeometry relative="1" as="geometry" />
        </mxCell>
        <mxCell id="bYh_4wJyu4nNFeAtEAbs-11" value="min=c" style="whiteSpace=wrap;html=1;" vertex="1" parent="1">
          <mxGeometry x="360" y="760" width="120" height="60" as="geometry" />
        </mxCell>
        <mxCell id="bYh_4wJyu4nNFeAtEAbs-13" value="end" style="ellipse;whiteSpace=wrap;html=1;" vertex="1" parent="1">
          <mxGeometry x="380" y="890" width="80" height="60" as="geometry" />
        </mxCell>
      </root>
    </mxGraphModel>
  </diagram>
  <diagram id="FuipeM-aDKNHE6RHm3wV" name="Trang-4">
    <mxGraphModel dx="1707" dy="446" grid="1" gridSize="10" guides="1" tooltips="1" connect="1" arrows="1" fold="1" page="1" pageScale="1" pageWidth="827" pageHeight="1169" math="0" shadow="0">
      <root>
        <mxCell id="0" />
        <mxCell id="1" parent="0" />
        <mxCell id="PlDcSnJrLguaMQYOtTTp-3" value="" style="edgeStyle=orthogonalEdgeStyle;rounded=0;orthogonalLoop=1;jettySize=auto;html=1;" edge="1" parent="1" source="PlDcSnJrLguaMQYOtTTp-1" target="PlDcSnJrLguaMQYOtTTp-2">
          <mxGeometry relative="1" as="geometry" />
        </mxCell>
        <mxCell id="PlDcSnJrLguaMQYOtTTp-1" value="start" style="ellipse;whiteSpace=wrap;html=1;" vertex="1" parent="1">
          <mxGeometry x="354" y="130" width="120" height="80" as="geometry" />
        </mxCell>
        <mxCell id="PlDcSnJrLguaMQYOtTTp-5" value="" style="edgeStyle=orthogonalEdgeStyle;rounded=0;orthogonalLoop=1;jettySize=auto;html=1;" edge="1" parent="1" source="PlDcSnJrLguaMQYOtTTp-2" target="PlDcSnJrLguaMQYOtTTp-4">
          <mxGeometry relative="1" as="geometry" />
        </mxCell>
        <mxCell id="PlDcSnJrLguaMQYOtTTp-2" value="a,b" style="shape=parallelogram;perimeter=parallelogramPerimeter;whiteSpace=wrap;html=1;fixedSize=1;" vertex="1" parent="1">
          <mxGeometry x="354" y="300" width="120" height="60" as="geometry" />
        </mxCell>
        <mxCell id="PlDcSnJrLguaMQYOtTTp-7" value="true" style="edgeStyle=orthogonalEdgeStyle;rounded=0;orthogonalLoop=1;jettySize=auto;html=1;" edge="1" parent="1" source="PlDcSnJrLguaMQYOtTTp-4" target="PlDcSnJrLguaMQYOtTTp-6">
          <mxGeometry relative="1" as="geometry">
            <Array as="points">
              <mxPoint x="550" y="480" />
              <mxPoint x="550" y="480" />
            </Array>
          </mxGeometry>
        </mxCell>
        <mxCell id="PlDcSnJrLguaMQYOtTTp-19" value="false" style="edgeStyle=orthogonalEdgeStyle;rounded=0;orthogonalLoop=1;jettySize=auto;html=1;" edge="1" parent="1" source="PlDcSnJrLguaMQYOtTTp-4" target="PlDcSnJrLguaMQYOtTTp-18">
          <mxGeometry relative="1" as="geometry" />
        </mxCell>
        <mxCell id="PlDcSnJrLguaMQYOtTTp-4" value="nghiệm = a&lt;br&gt;" style="whiteSpace=wrap;html=1;" vertex="1" parent="1">
          <mxGeometry x="354" y="450" width="120" height="60" as="geometry" />
        </mxCell>
        <mxCell id="PlDcSnJrLguaMQYOtTTp-9" value="" style="edgeStyle=orthogonalEdgeStyle;rounded=0;orthogonalLoop=1;jettySize=auto;html=1;" edge="1" parent="1" source="PlDcSnJrLguaMQYOtTTp-6" target="PlDcSnJrLguaMQYOtTTp-8">
          <mxGeometry relative="1" as="geometry" />
        </mxCell>
        <mxCell id="PlDcSnJrLguaMQYOtTTp-11" value="false" style="edgeStyle=orthogonalEdgeStyle;rounded=0;orthogonalLoop=1;jettySize=auto;html=1;" edge="1" parent="1" source="PlDcSnJrLguaMQYOtTTp-6" target="PlDcSnJrLguaMQYOtTTp-10">
          <mxGeometry relative="1" as="geometry" />
        </mxCell>
        <mxCell id="PlDcSnJrLguaMQYOtTTp-6" value="a = 0" style="rhombus;whiteSpace=wrap;html=1;" vertex="1" parent="1">
          <mxGeometry x="574" y="430" width="80" height="80" as="geometry" />
        </mxCell>
        <mxCell id="PlDcSnJrLguaMQYOtTTp-17" style="rounded=0;orthogonalLoop=1;jettySize=auto;html=1;entryX=0.967;entryY=0.75;entryDx=0;entryDy=0;entryPerimeter=0;edgeStyle=elbowEdgeStyle;" edge="1" parent="1" source="PlDcSnJrLguaMQYOtTTp-8" target="PlDcSnJrLguaMQYOtTTp-12">
          <mxGeometry relative="1" as="geometry">
            <mxPoint x="780" y="850" as="targetPoint" />
            <Array as="points">
              <mxPoint x="774" y="690" />
            </Array>
          </mxGeometry>
        </mxCell>
        <mxCell id="PlDcSnJrLguaMQYOtTTp-8" value="2 trường hợp" style="whiteSpace=wrap;html=1;" vertex="1" parent="1">
          <mxGeometry x="714" y="440" width="120" height="60" as="geometry" />
        </mxCell>
        <mxCell id="PlDcSnJrLguaMQYOtTTp-10" value="nghiệm = -b/a" style="whiteSpace=wrap;html=1;" vertex="1" parent="1">
          <mxGeometry x="554" y="600" width="120" height="60" as="geometry" />
        </mxCell>
        <mxCell id="PlDcSnJrLguaMQYOtTTp-12" value="end" style="ellipse;whiteSpace=wrap;html=1;" vertex="1" parent="1">
          <mxGeometry x="354" y="770" width="120" height="80" as="geometry" />
        </mxCell>
        <mxCell id="PlDcSnJrLguaMQYOtTTp-13" style="edgeStyle=orthogonalEdgeStyle;rounded=0;orthogonalLoop=1;jettySize=auto;html=1;entryX=0.717;entryY=0.25;entryDx=0;entryDy=0;exitX=0;exitY=0.5;exitDx=0;exitDy=0;entryPerimeter=0;" edge="1" parent="1" source="PlDcSnJrLguaMQYOtTTp-10" target="PlDcSnJrLguaMQYOtTTp-12">
          <mxGeometry relative="1" as="geometry">
            <mxPoint x="584" y="630" as="sourcePoint" />
            <mxPoint x="500.03999999999996" y="830" as="targetPoint" />
          </mxGeometry>
        </mxCell>
        <mxCell id="PlDcSnJrLguaMQYOtTTp-21" value="true" style="edgeStyle=orthogonalEdgeStyle;rounded=0;orthogonalLoop=1;jettySize=auto;html=1;" edge="1" parent="1" source="PlDcSnJrLguaMQYOtTTp-18" target="PlDcSnJrLguaMQYOtTTp-20">
          <mxGeometry relative="1" as="geometry" />
        </mxCell>
        <mxCell id="PlDcSnJrLguaMQYOtTTp-23" value="false" style="edgeStyle=orthogonalEdgeStyle;rounded=0;orthogonalLoop=1;jettySize=auto;html=1;" edge="1" parent="1" source="PlDcSnJrLguaMQYOtTTp-18" target="PlDcSnJrLguaMQYOtTTp-22">
          <mxGeometry relative="1" as="geometry" />
        </mxCell>
        <mxCell id="PlDcSnJrLguaMQYOtTTp-18" value="b = 0" style="rhombus;whiteSpace=wrap;html=1;" vertex="1" parent="1">
          <mxGeometry x="174" y="440" width="80" height="80" as="geometry" />
        </mxCell>
        <mxCell id="PlDcSnJrLguaMQYOtTTp-27" style="edgeStyle=orthogonalEdgeStyle;rounded=0;orthogonalLoop=1;jettySize=auto;html=1;" edge="1" parent="1" source="PlDcSnJrLguaMQYOtTTp-20" target="PlDcSnJrLguaMQYOtTTp-12">
          <mxGeometry relative="1" as="geometry" />
        </mxCell>
        <mxCell id="PlDcSnJrLguaMQYOtTTp-20" value="vô số nghiệm" style="whiteSpace=wrap;html=1;" vertex="1" parent="1">
          <mxGeometry x="154" y="610" width="120" height="60" as="geometry" />
        </mxCell>
        <mxCell id="PlDcSnJrLguaMQYOtTTp-26" style="edgeStyle=orthogonalEdgeStyle;rounded=0;orthogonalLoop=1;jettySize=auto;html=1;entryX=0;entryY=0.5;entryDx=0;entryDy=0;exitX=0.617;exitY=1.06;exitDx=0;exitDy=0;exitPerimeter=0;" edge="1" parent="1" source="PlDcSnJrLguaMQYOtTTp-22" target="PlDcSnJrLguaMQYOtTTp-12">
          <mxGeometry relative="1" as="geometry">
            <mxPoint x="-226" y="510" as="sourcePoint" />
            <Array as="points">
              <mxPoint x="68" y="810" />
            </Array>
          </mxGeometry>
        </mxCell>
        <mxCell id="PlDcSnJrLguaMQYOtTTp-22" value="vô nghiệm" style="whiteSpace=wrap;html=1;" vertex="1" parent="1">
          <mxGeometry x="-6" y="460" width="120" height="50" as="geometry" />
        </mxCell>
      </root>
    </mxGraphModel>
  </diagram>
  <diagram id="h0ga3jGCZYyeAUbb7RJ4" name="Trang-3">
    <mxGraphModel dx="880" dy="446" grid="1" gridSize="10" guides="1" tooltips="1" connect="1" arrows="1" fold="1" page="1" pageScale="1" pageWidth="827" pageHeight="1169" math="0" shadow="0">
      <root>
        <mxCell id="0" />
        <mxCell id="1" parent="0" />
        <mxCell id="T6kdcvq83UXthCUOWX90-4" value="" style="edgeStyle=orthogonalEdgeStyle;rounded=0;orthogonalLoop=1;jettySize=auto;html=1;" edge="1" parent="1" source="T6kdcvq83UXthCUOWX90-2" target="T6kdcvq83UXthCUOWX90-3">
          <mxGeometry relative="1" as="geometry" />
        </mxCell>
        <mxCell id="T6kdcvq83UXthCUOWX90-2" value="START" style="ellipse;whiteSpace=wrap;html=1;" vertex="1" parent="1">
          <mxGeometry x="340" y="40" width="120" height="80" as="geometry" />
        </mxCell>
        <mxCell id="T6kdcvq83UXthCUOWX90-6" value="" style="edgeStyle=orthogonalEdgeStyle;rounded=0;orthogonalLoop=1;jettySize=auto;html=1;" edge="1" parent="1" source="T6kdcvq83UXthCUOWX90-3" target="T6kdcvq83UXthCUOWX90-5">
          <mxGeometry relative="1" as="geometry" />
        </mxCell>
        <mxCell id="T6kdcvq83UXthCUOWX90-3" value="A,B" style="shape=parallelogram;perimeter=parallelogramPerimeter;whiteSpace=wrap;html=1;fixedSize=1;" vertex="1" parent="1">
          <mxGeometry x="340" y="210" width="120" height="60" as="geometry" />
        </mxCell>
        <mxCell id="T6kdcvq83UXthCUOWX90-8" value="" style="edgeStyle=orthogonalEdgeStyle;rounded=0;orthogonalLoop=1;jettySize=auto;html=1;" edge="1" parent="1" source="T6kdcvq83UXthCUOWX90-5" target="T6kdcvq83UXthCUOWX90-7">
          <mxGeometry relative="1" as="geometry" />
        </mxCell>
        <mxCell id="T6kdcvq83UXthCUOWX90-14" value="" style="edgeStyle=orthogonalEdgeStyle;rounded=0;orthogonalLoop=1;jettySize=auto;html=1;" edge="1" parent="1" source="T6kdcvq83UXthCUOWX90-5" target="T6kdcvq83UXthCUOWX90-13">
          <mxGeometry relative="1" as="geometry" />
        </mxCell>
        <mxCell id="T6kdcvq83UXthCUOWX90-21" value="" style="edgeStyle=orthogonalEdgeStyle;rounded=0;orthogonalLoop=1;jettySize=auto;html=1;" edge="1" parent="1" source="T6kdcvq83UXthCUOWX90-5" target="T6kdcvq83UXthCUOWX90-20">
          <mxGeometry relative="1" as="geometry" />
        </mxCell>
        <mxCell id="T6kdcvq83UXthCUOWX90-5" value="BCNN = A" style="whiteSpace=wrap;html=1;" vertex="1" parent="1">
          <mxGeometry x="340" y="350" width="120" height="60" as="geometry" />
        </mxCell>
        <mxCell id="T6kdcvq83UXthCUOWX90-11" value="" style="edgeStyle=orthogonalEdgeStyle;rounded=0;orthogonalLoop=1;jettySize=auto;html=1;" edge="1" parent="1" source="T6kdcvq83UXthCUOWX90-7" target="T6kdcvq83UXthCUOWX90-10">
          <mxGeometry relative="1" as="geometry" />
        </mxCell>
        <mxCell id="T6kdcvq83UXthCUOWX90-7" value="A=B=0" style="rhombus;whiteSpace=wrap;html=1;" vertex="1" parent="1">
          <mxGeometry x="560" y="340" width="80" height="80" as="geometry" />
        </mxCell>
        <mxCell id="T6kdcvq83UXthCUOWX90-9" value="END" style="ellipse;whiteSpace=wrap;html=1;" vertex="1" parent="1">
          <mxGeometry x="360" y="760" width="120" height="80" as="geometry" />
        </mxCell>
        <mxCell id="T6kdcvq83UXthCUOWX90-10" value="KHÔNG BCNN" style="whiteSpace=wrap;html=1;" vertex="1" parent="1">
          <mxGeometry x="540" y="510" width="120" height="60" as="geometry" />
        </mxCell>
        <mxCell id="T6kdcvq83UXthCUOWX90-12" style="edgeStyle=orthogonalEdgeStyle;rounded=0;orthogonalLoop=1;jettySize=auto;html=1;entryX=0.992;entryY=0.638;entryDx=0;entryDy=0;entryPerimeter=0;" edge="1" parent="1">
          <mxGeometry relative="1" as="geometry">
            <mxPoint x="601" y="570" as="sourcePoint" />
            <mxPoint x="480.03999999999996" y="811.04" as="targetPoint" />
            <Array as="points">
              <mxPoint x="601" y="721" />
              <mxPoint x="600" y="721" />
              <mxPoint x="600" y="811" />
            </Array>
          </mxGeometry>
        </mxCell>
        <mxCell id="T6kdcvq83UXthCUOWX90-16" value="" style="edgeStyle=orthogonalEdgeStyle;rounded=0;orthogonalLoop=1;jettySize=auto;html=1;" edge="1" parent="1" source="T6kdcvq83UXthCUOWX90-13" target="T6kdcvq83UXthCUOWX90-15">
          <mxGeometry relative="1" as="geometry" />
        </mxCell>
        <mxCell id="T6kdcvq83UXthCUOWX90-13" value="A &amp;gt; B" style="rhombus;whiteSpace=wrap;html=1;" vertex="1" parent="1">
          <mxGeometry x="360" y="430" width="80" height="80" as="geometry" />
        </mxCell>
        <mxCell id="T6kdcvq83UXthCUOWX90-18" value="" style="edgeStyle=orthogonalEdgeStyle;rounded=0;orthogonalLoop=1;jettySize=auto;html=1;" edge="1" parent="1" source="T6kdcvq83UXthCUOWX90-15" target="T6kdcvq83UXthCUOWX90-17">
          <mxGeometry relative="1" as="geometry" />
        </mxCell>
        <mxCell id="T6kdcvq83UXthCUOWX90-15" value="Dò BCNN A CHIA HẾT CHO B" style="whiteSpace=wrap;html=1;" vertex="1" parent="1">
          <mxGeometry x="340" y="540" width="120" height="60" as="geometry" />
        </mxCell>
        <mxCell id="T6kdcvq83UXthCUOWX90-19" value="" style="edgeStyle=orthogonalEdgeStyle;rounded=0;orthogonalLoop=1;jettySize=auto;html=1;" edge="1" parent="1" source="T6kdcvq83UXthCUOWX90-17" target="T6kdcvq83UXthCUOWX90-9">
          <mxGeometry relative="1" as="geometry" />
        </mxCell>
        <mxCell id="T6kdcvq83UXthCUOWX90-17" value="BCNN" style="shape=parallelogram;perimeter=parallelogramPerimeter;whiteSpace=wrap;html=1;fixedSize=1;" vertex="1" parent="1">
          <mxGeometry x="340" y="640" width="120" height="60" as="geometry" />
        </mxCell>
        <mxCell id="T6kdcvq83UXthCUOWX90-23" value="" style="edgeStyle=orthogonalEdgeStyle;rounded=0;orthogonalLoop=1;jettySize=auto;html=1;" edge="1" parent="1" source="T6kdcvq83UXthCUOWX90-20" target="T6kdcvq83UXthCUOWX90-22">
          <mxGeometry relative="1" as="geometry" />
        </mxCell>
        <mxCell id="T6kdcvq83UXthCUOWX90-20" value="A &amp;lt; B" style="rhombus;whiteSpace=wrap;html=1;" vertex="1" parent="1">
          <mxGeometry x="180" y="340" width="80" height="80" as="geometry" />
        </mxCell>
        <mxCell id="T6kdcvq83UXthCUOWX90-25" value="" style="edgeStyle=orthogonalEdgeStyle;rounded=0;orthogonalLoop=1;jettySize=auto;html=1;" edge="1" parent="1" source="T6kdcvq83UXthCUOWX90-22" target="T6kdcvq83UXthCUOWX90-24">
          <mxGeometry relative="1" as="geometry" />
        </mxCell>
        <mxCell id="T6kdcvq83UXthCUOWX90-22" value="Dò BCNN B CHIA HẾT CHO A" style="whiteSpace=wrap;html=1;" vertex="1" parent="1">
          <mxGeometry x="160" y="510" width="120" height="60" as="geometry" />
        </mxCell>
        <mxCell id="T6kdcvq83UXthCUOWX90-24" value="BCNN" style="shape=parallelogram;perimeter=parallelogramPerimeter;whiteSpace=wrap;html=1;fixedSize=1;" vertex="1" parent="1">
          <mxGeometry x="160" y="650" width="120" height="60" as="geometry" />
        </mxCell>
        <mxCell id="T6kdcvq83UXthCUOWX90-26" style="edgeStyle=orthogonalEdgeStyle;rounded=0;orthogonalLoop=1;jettySize=auto;html=1;entryX=0;entryY=0.75;entryDx=0;entryDy=0;entryPerimeter=0;" edge="1" parent="1" source="T6kdcvq83UXthCUOWX90-24" target="T6kdcvq83UXthCUOWX90-9">
          <mxGeometry relative="1" as="geometry" />
        </mxCell>
      </root>
    </mxGraphModel>
  </diagram>
  <diagram id="bfnwktwkyX13HZRpcmm2" name="Trang-5">
    <mxGraphModel dx="880" dy="446" grid="1" gridSize="10" guides="1" tooltips="1" connect="1" arrows="1" fold="1" page="1" pageScale="1" pageWidth="827" pageHeight="1169" math="0" shadow="0">
      <root>
        <mxCell id="0" />
        <mxCell id="1" parent="0" />
        <mxCell id="2N26vgnjwx_5Qk4Bd40z-3" value="" style="edgeStyle=orthogonalEdgeStyle;rounded=0;orthogonalLoop=1;jettySize=auto;html=1;" edge="1" parent="1" source="2N26vgnjwx_5Qk4Bd40z-1" target="2N26vgnjwx_5Qk4Bd40z-2">
          <mxGeometry relative="1" as="geometry" />
        </mxCell>
        <mxCell id="2N26vgnjwx_5Qk4Bd40z-1" value="START" style="ellipse;whiteSpace=wrap;html=1;" vertex="1" parent="1">
          <mxGeometry x="340" y="40" width="120" height="80" as="geometry" />
        </mxCell>
        <mxCell id="2N26vgnjwx_5Qk4Bd40z-7" value="" style="edgeStyle=orthogonalEdgeStyle;rounded=0;orthogonalLoop=1;jettySize=auto;html=1;" edge="1" parent="1" source="2N26vgnjwx_5Qk4Bd40z-2" target="2N26vgnjwx_5Qk4Bd40z-6">
          <mxGeometry relative="1" as="geometry" />
        </mxCell>
        <mxCell id="2N26vgnjwx_5Qk4Bd40z-2" value="A,B,C" style="shape=parallelogram;perimeter=parallelogramPerimeter;whiteSpace=wrap;html=1;fixedSize=1;" vertex="1" parent="1">
          <mxGeometry x="340" y="210" width="120" height="60" as="geometry" />
        </mxCell>
        <mxCell id="2N26vgnjwx_5Qk4Bd40z-9" value="" style="edgeStyle=orthogonalEdgeStyle;rounded=0;orthogonalLoop=1;jettySize=auto;html=1;" edge="1" parent="1" source="2N26vgnjwx_5Qk4Bd40z-6" target="2N26vgnjwx_5Qk4Bd40z-8">
          <mxGeometry relative="1" as="geometry" />
        </mxCell>
        <mxCell id="2N26vgnjwx_5Qk4Bd40z-13" value="" style="edgeStyle=orthogonalEdgeStyle;rounded=0;orthogonalLoop=1;jettySize=auto;html=1;" edge="1" parent="1" source="2N26vgnjwx_5Qk4Bd40z-6" target="2N26vgnjwx_5Qk4Bd40z-12">
          <mxGeometry relative="1" as="geometry" />
        </mxCell>
        <mxCell id="2N26vgnjwx_5Qk4Bd40z-17" value="" style="edgeStyle=orthogonalEdgeStyle;rounded=0;orthogonalLoop=1;jettySize=auto;html=1;" edge="1" parent="1" source="2N26vgnjwx_5Qk4Bd40z-6" target="2N26vgnjwx_5Qk4Bd40z-16">
          <mxGeometry relative="1" as="geometry" />
        </mxCell>
        <mxCell id="2N26vgnjwx_5Qk4Bd40z-6" value="DENTA = B^2 - 4AC" style="whiteSpace=wrap;html=1;" vertex="1" parent="1">
          <mxGeometry x="340" y="350" width="120" height="60" as="geometry" />
        </mxCell>
        <mxCell id="2N26vgnjwx_5Qk4Bd40z-11" value="" style="edgeStyle=orthogonalEdgeStyle;rounded=0;orthogonalLoop=1;jettySize=auto;html=1;" edge="1" parent="1" source="2N26vgnjwx_5Qk4Bd40z-8" target="2N26vgnjwx_5Qk4Bd40z-10">
          <mxGeometry relative="1" as="geometry" />
        </mxCell>
        <mxCell id="2N26vgnjwx_5Qk4Bd40z-8" value="DENTA &amp;gt; 0" style="rhombus;whiteSpace=wrap;html=1;" vertex="1" parent="1">
          <mxGeometry x="560" y="340" width="80" height="80" as="geometry" />
        </mxCell>
        <mxCell id="2N26vgnjwx_5Qk4Bd40z-10" value="2 NGHIỆM" style="whiteSpace=wrap;html=1;" vertex="1" parent="1">
          <mxGeometry x="540" y="510" width="120" height="60" as="geometry" />
        </mxCell>
        <mxCell id="2N26vgnjwx_5Qk4Bd40z-15" value="" style="edgeStyle=orthogonalEdgeStyle;rounded=0;orthogonalLoop=1;jettySize=auto;html=1;" edge="1" parent="1" source="2N26vgnjwx_5Qk4Bd40z-12" target="2N26vgnjwx_5Qk4Bd40z-14">
          <mxGeometry relative="1" as="geometry" />
        </mxCell>
        <mxCell id="2N26vgnjwx_5Qk4Bd40z-12" value="DENTA = 0" style="rhombus;whiteSpace=wrap;html=1;" vertex="1" parent="1">
          <mxGeometry x="360" y="480" width="80" height="80" as="geometry" />
        </mxCell>
        <mxCell id="2N26vgnjwx_5Qk4Bd40z-21" style="edgeStyle=orthogonalEdgeStyle;rounded=0;orthogonalLoop=1;jettySize=auto;html=1;entryX=0.5;entryY=0;entryDx=0;entryDy=0;" edge="1" parent="1" source="2N26vgnjwx_5Qk4Bd40z-14" target="2N26vgnjwx_5Qk4Bd40z-20">
          <mxGeometry relative="1" as="geometry" />
        </mxCell>
        <mxCell id="2N26vgnjwx_5Qk4Bd40z-14" value="NGHIỆM KÉP" style="whiteSpace=wrap;html=1;" vertex="1" parent="1">
          <mxGeometry x="340" y="650" width="120" height="60" as="geometry" />
        </mxCell>
        <mxCell id="2N26vgnjwx_5Qk4Bd40z-19" value="" style="edgeStyle=orthogonalEdgeStyle;rounded=0;orthogonalLoop=1;jettySize=auto;html=1;" edge="1" parent="1" source="2N26vgnjwx_5Qk4Bd40z-16" target="2N26vgnjwx_5Qk4Bd40z-18">
          <mxGeometry relative="1" as="geometry" />
        </mxCell>
        <mxCell id="2N26vgnjwx_5Qk4Bd40z-16" value="DENTA &amp;lt; 0" style="rhombus;whiteSpace=wrap;html=1;" vertex="1" parent="1">
          <mxGeometry x="160" y="340" width="80" height="80" as="geometry" />
        </mxCell>
        <mxCell id="2N26vgnjwx_5Qk4Bd40z-18" value="VÔ NGHIỆM" style="whiteSpace=wrap;html=1;" vertex="1" parent="1">
          <mxGeometry x="140" y="510" width="120" height="60" as="geometry" />
        </mxCell>
        <mxCell id="2N26vgnjwx_5Qk4Bd40z-20" value="END&lt;br&gt;" style="ellipse;whiteSpace=wrap;html=1;" vertex="1" parent="1">
          <mxGeometry x="340" y="820" width="120" height="80" as="geometry" />
        </mxCell>
        <mxCell id="2N26vgnjwx_5Qk4Bd40z-22" style="edgeStyle=orthogonalEdgeStyle;rounded=0;orthogonalLoop=1;jettySize=auto;html=1;entryX=1;entryY=0.75;entryDx=0;entryDy=0;entryPerimeter=0;" edge="1" parent="1" source="2N26vgnjwx_5Qk4Bd40z-10" target="2N26vgnjwx_5Qk4Bd40z-20">
          <mxGeometry relative="1" as="geometry" />
        </mxCell>
        <mxCell id="2N26vgnjwx_5Qk4Bd40z-23" style="edgeStyle=orthogonalEdgeStyle;rounded=0;orthogonalLoop=1;jettySize=auto;html=1;entryX=0;entryY=0.75;entryDx=0;entryDy=0;entryPerimeter=0;" edge="1" parent="1" source="2N26vgnjwx_5Qk4Bd40z-18" target="2N26vgnjwx_5Qk4Bd40z-20">
          <mxGeometry relative="1" as="geometry" />
        </mxCell>
      </root>
    </mxGraphModel>
  </diagram>
  <diagram id="d0ccgLwFaz4VPBvgFgqj" name="Trang-6">
    <mxGraphModel dx="880" dy="446" grid="1" gridSize="10" guides="1" tooltips="1" connect="1" arrows="1" fold="1" page="1" pageScale="1" pageWidth="827" pageHeight="1169" math="0" shadow="0">
      <root>
        <mxCell id="0" />
        <mxCell id="1" parent="0" />
        <mxCell id="Z7fpcl7xB_oaJSnWOulR-3" value="" style="edgeStyle=orthogonalEdgeStyle;rounded=0;orthogonalLoop=1;jettySize=auto;html=1;" edge="1" parent="1" source="Z7fpcl7xB_oaJSnWOulR-1" target="Z7fpcl7xB_oaJSnWOulR-2">
          <mxGeometry relative="1" as="geometry" />
        </mxCell>
        <mxCell id="Z7fpcl7xB_oaJSnWOulR-1" value="START" style="ellipse;whiteSpace=wrap;html=1;" vertex="1" parent="1">
          <mxGeometry x="340" y="20" width="120" height="80" as="geometry" />
        </mxCell>
        <mxCell id="Z7fpcl7xB_oaJSnWOulR-5" value="" style="edgeStyle=orthogonalEdgeStyle;rounded=0;orthogonalLoop=1;jettySize=auto;html=1;" edge="1" parent="1" source="Z7fpcl7xB_oaJSnWOulR-2" target="Z7fpcl7xB_oaJSnWOulR-4">
          <mxGeometry relative="1" as="geometry" />
        </mxCell>
        <mxCell id="Z7fpcl7xB_oaJSnWOulR-2" value="A,B" style="shape=parallelogram;perimeter=parallelogramPerimeter;whiteSpace=wrap;html=1;fixedSize=1;" vertex="1" parent="1">
          <mxGeometry x="340" y="190" width="120" height="60" as="geometry" />
        </mxCell>
        <mxCell id="Z7fpcl7xB_oaJSnWOulR-7" value="" style="edgeStyle=orthogonalEdgeStyle;rounded=0;orthogonalLoop=1;jettySize=auto;html=1;" edge="1" parent="1" source="Z7fpcl7xB_oaJSnWOulR-4" target="Z7fpcl7xB_oaJSnWOulR-6">
          <mxGeometry relative="1" as="geometry" />
        </mxCell>
        <mxCell id="Z7fpcl7xB_oaJSnWOulR-13" value="" style="edgeStyle=orthogonalEdgeStyle;rounded=0;orthogonalLoop=1;jettySize=auto;html=1;" edge="1" parent="1" source="Z7fpcl7xB_oaJSnWOulR-4" target="Z7fpcl7xB_oaJSnWOulR-12">
          <mxGeometry relative="1" as="geometry" />
        </mxCell>
        <mxCell id="Z7fpcl7xB_oaJSnWOulR-19" value="" style="edgeStyle=orthogonalEdgeStyle;rounded=0;orthogonalLoop=1;jettySize=auto;html=1;" edge="1" parent="1" source="Z7fpcl7xB_oaJSnWOulR-4" target="Z7fpcl7xB_oaJSnWOulR-18">
          <mxGeometry relative="1" as="geometry">
            <Array as="points">
              <mxPoint x="350" y="500" />
            </Array>
          </mxGeometry>
        </mxCell>
        <mxCell id="Z7fpcl7xB_oaJSnWOulR-23" style="edgeStyle=orthogonalEdgeStyle;rounded=0;orthogonalLoop=1;jettySize=auto;html=1;" edge="1" parent="1" source="Z7fpcl7xB_oaJSnWOulR-4" target="Z7fpcl7xB_oaJSnWOulR-21">
          <mxGeometry relative="1" as="geometry">
            <Array as="points">
              <mxPoint x="454" y="440" />
              <mxPoint x="454" y="440" />
            </Array>
          </mxGeometry>
        </mxCell>
        <mxCell id="Z7fpcl7xB_oaJSnWOulR-4" value="+,-,*,/" style="whiteSpace=wrap;html=1;" vertex="1" parent="1">
          <mxGeometry x="340" y="330" width="120" height="60" as="geometry" />
        </mxCell>
        <mxCell id="Z7fpcl7xB_oaJSnWOulR-9" value="" style="edgeStyle=orthogonalEdgeStyle;rounded=0;orthogonalLoop=1;jettySize=auto;html=1;" edge="1" parent="1" source="Z7fpcl7xB_oaJSnWOulR-6" target="Z7fpcl7xB_oaJSnWOulR-8">
          <mxGeometry relative="1" as="geometry" />
        </mxCell>
        <mxCell id="Z7fpcl7xB_oaJSnWOulR-6" value="+" style="rhombus;whiteSpace=wrap;html=1;" vertex="1" parent="1">
          <mxGeometry x="560" y="320" width="80" height="80" as="geometry" />
        </mxCell>
        <mxCell id="Z7fpcl7xB_oaJSnWOulR-11" value="" style="edgeStyle=orthogonalEdgeStyle;rounded=0;orthogonalLoop=1;jettySize=auto;html=1;" edge="1" parent="1" source="Z7fpcl7xB_oaJSnWOulR-8" target="Z7fpcl7xB_oaJSnWOulR-10">
          <mxGeometry relative="1" as="geometry" />
        </mxCell>
        <mxCell id="Z7fpcl7xB_oaJSnWOulR-8" value="TỔNG = A + B" style="whiteSpace=wrap;html=1;" vertex="1" parent="1">
          <mxGeometry x="540" y="490" width="120" height="60" as="geometry" />
        </mxCell>
        <mxCell id="Z7fpcl7xB_oaJSnWOulR-10" value="TỔNG" style="shape=parallelogram;perimeter=parallelogramPerimeter;whiteSpace=wrap;html=1;fixedSize=1;" vertex="1" parent="1">
          <mxGeometry x="540" y="630" width="120" height="60" as="geometry" />
        </mxCell>
        <mxCell id="Z7fpcl7xB_oaJSnWOulR-15" value="" style="edgeStyle=orthogonalEdgeStyle;rounded=0;orthogonalLoop=1;jettySize=auto;html=1;" edge="1" parent="1" source="Z7fpcl7xB_oaJSnWOulR-12" target="Z7fpcl7xB_oaJSnWOulR-14">
          <mxGeometry relative="1" as="geometry" />
        </mxCell>
        <mxCell id="Z7fpcl7xB_oaJSnWOulR-12" value="-" style="rhombus;whiteSpace=wrap;html=1;" vertex="1" parent="1">
          <mxGeometry x="160" y="320" width="80" height="80" as="geometry" />
        </mxCell>
        <mxCell id="Z7fpcl7xB_oaJSnWOulR-17" value="" style="edgeStyle=orthogonalEdgeStyle;rounded=0;orthogonalLoop=1;jettySize=auto;html=1;" edge="1" parent="1" source="Z7fpcl7xB_oaJSnWOulR-14" target="Z7fpcl7xB_oaJSnWOulR-16">
          <mxGeometry relative="1" as="geometry" />
        </mxCell>
        <mxCell id="Z7fpcl7xB_oaJSnWOulR-14" value="HIỆU = A - B" style="whiteSpace=wrap;html=1;" vertex="1" parent="1">
          <mxGeometry x="140" y="490" width="120" height="60" as="geometry" />
        </mxCell>
        <mxCell id="Z7fpcl7xB_oaJSnWOulR-37" style="edgeStyle=orthogonalEdgeStyle;rounded=0;orthogonalLoop=1;jettySize=auto;html=1;" edge="1" parent="1" source="Z7fpcl7xB_oaJSnWOulR-16" target="Z7fpcl7xB_oaJSnWOulR-36">
          <mxGeometry relative="1" as="geometry">
            <Array as="points">
              <mxPoint x="190" y="910" />
            </Array>
          </mxGeometry>
        </mxCell>
        <mxCell id="Z7fpcl7xB_oaJSnWOulR-16" value="HIỆU" style="shape=parallelogram;perimeter=parallelogramPerimeter;whiteSpace=wrap;html=1;fixedSize=1;" vertex="1" parent="1">
          <mxGeometry x="140" y="630" width="120" height="60" as="geometry" />
        </mxCell>
        <mxCell id="Z7fpcl7xB_oaJSnWOulR-25" value="" style="edgeStyle=orthogonalEdgeStyle;rounded=0;orthogonalLoop=1;jettySize=auto;html=1;entryX=0.417;entryY=-0.017;entryDx=0;entryDy=0;entryPerimeter=0;" edge="1" parent="1" source="Z7fpcl7xB_oaJSnWOulR-18" target="Z7fpcl7xB_oaJSnWOulR-30">
          <mxGeometry relative="1" as="geometry">
            <mxPoint x="339.96000000000004" y="669.98" as="targetPoint" />
          </mxGeometry>
        </mxCell>
        <mxCell id="Z7fpcl7xB_oaJSnWOulR-18" value="*" style="rhombus;whiteSpace=wrap;html=1;" vertex="1" parent="1">
          <mxGeometry x="300" y="480" width="80" height="80" as="geometry" />
        </mxCell>
        <mxCell id="Z7fpcl7xB_oaJSnWOulR-27" value="" style="edgeStyle=orthogonalEdgeStyle;rounded=0;orthogonalLoop=1;jettySize=auto;html=1;" edge="1" parent="1" source="Z7fpcl7xB_oaJSnWOulR-21">
          <mxGeometry relative="1" as="geometry">
            <mxPoint x="454" y="610" as="targetPoint" />
          </mxGeometry>
        </mxCell>
        <mxCell id="Z7fpcl7xB_oaJSnWOulR-21" value="/" style="rhombus;whiteSpace=wrap;html=1;" vertex="1" parent="1">
          <mxGeometry x="414" y="480" width="80" height="80" as="geometry" />
        </mxCell>
        <mxCell id="Z7fpcl7xB_oaJSnWOulR-33" value="" style="edgeStyle=orthogonalEdgeStyle;rounded=0;orthogonalLoop=1;jettySize=auto;html=1;" edge="1" parent="1" source="Z7fpcl7xB_oaJSnWOulR-30" target="Z7fpcl7xB_oaJSnWOulR-32">
          <mxGeometry relative="1" as="geometry" />
        </mxCell>
        <mxCell id="Z7fpcl7xB_oaJSnWOulR-30" value="TÍCH = A*B" style="rounded=0;whiteSpace=wrap;html=1;" vertex="1" parent="1">
          <mxGeometry x="290" y="610" width="120" height="60" as="geometry" />
        </mxCell>
        <mxCell id="Z7fpcl7xB_oaJSnWOulR-35" value="" style="edgeStyle=orthogonalEdgeStyle;rounded=0;orthogonalLoop=1;jettySize=auto;html=1;" edge="1" parent="1" source="Z7fpcl7xB_oaJSnWOulR-31" target="Z7fpcl7xB_oaJSnWOulR-34">
          <mxGeometry relative="1" as="geometry" />
        </mxCell>
        <mxCell id="Z7fpcl7xB_oaJSnWOulR-31" value="THƯƠNG&amp;nbsp; A/B" style="rounded=0;whiteSpace=wrap;html=1;" vertex="1" parent="1">
          <mxGeometry x="420" y="610" width="120" height="60" as="geometry" />
        </mxCell>
        <mxCell id="Z7fpcl7xB_oaJSnWOulR-39" style="edgeStyle=orthogonalEdgeStyle;rounded=0;orthogonalLoop=1;jettySize=auto;html=1;entryX=0;entryY=0;entryDx=0;entryDy=0;" edge="1" parent="1" source="Z7fpcl7xB_oaJSnWOulR-32" target="Z7fpcl7xB_oaJSnWOulR-36">
          <mxGeometry relative="1" as="geometry" />
        </mxCell>
        <mxCell id="Z7fpcl7xB_oaJSnWOulR-32" value="TÍCH" style="shape=parallelogram;perimeter=parallelogramPerimeter;whiteSpace=wrap;html=1;fixedSize=1;rounded=0;" vertex="1" parent="1">
          <mxGeometry x="290" y="750" width="120" height="60" as="geometry" />
        </mxCell>
        <mxCell id="Z7fpcl7xB_oaJSnWOulR-34" value="THƯƠNG" style="shape=parallelogram;perimeter=parallelogramPerimeter;whiteSpace=wrap;html=1;fixedSize=1;rounded=0;" vertex="1" parent="1">
          <mxGeometry x="420" y="750" width="120" height="60" as="geometry" />
        </mxCell>
        <mxCell id="Z7fpcl7xB_oaJSnWOulR-36" value="END" style="ellipse;whiteSpace=wrap;html=1;" vertex="1" parent="1">
          <mxGeometry x="354" y="870" width="120" height="80" as="geometry" />
        </mxCell>
        <mxCell id="Z7fpcl7xB_oaJSnWOulR-38" style="edgeStyle=orthogonalEdgeStyle;rounded=0;orthogonalLoop=1;jettySize=auto;html=1;entryX=0.967;entryY=0.625;entryDx=0;entryDy=0;entryPerimeter=0;" edge="1" parent="1" source="Z7fpcl7xB_oaJSnWOulR-10" target="Z7fpcl7xB_oaJSnWOulR-36">
          <mxGeometry relative="1" as="geometry">
            <Array as="points">
              <mxPoint x="620" y="920" />
            </Array>
          </mxGeometry>
        </mxCell>
        <mxCell id="Z7fpcl7xB_oaJSnWOulR-40" style="edgeStyle=orthogonalEdgeStyle;rounded=0;orthogonalLoop=1;jettySize=auto;html=1;entryX=0.767;entryY=0.113;entryDx=0;entryDy=0;entryPerimeter=0;" edge="1" parent="1" source="Z7fpcl7xB_oaJSnWOulR-34" target="Z7fpcl7xB_oaJSnWOulR-36">
          <mxGeometry relative="1" as="geometry" />
        </mxCell>
      </root>
    </mxGraphModel>
  </diagram>
</mxfile>
